<svg width="28" height="28" viewBox="0 0 28 28" fill="none" xmlns="http://www.w3.org/2000/svg">
<g id="mingcute:linkedin-line" clip-path="url(#clip0_1_49)">
<g id="Group">
<path id="Vector" d="M21 3.5C21.9283 3.5 22.8185 3.86875 23.4749 4.52513C24.1313 5.1815 24.5 6.07174 24.5 7V21C24.5 21.9283 24.1313 22.8185 23.4749 23.4749C22.8185 24.1313 21.9283 24.5 21 24.5H7C6.07174 24.5 5.1815 24.1313 4.52513 23.4749C3.86875 22.8185 3.5 21.9283 3.5 21V7C3.5 6.07174 3.86875 5.1815 4.52513 4.52513C5.1815 3.86875 6.07174 3.5 7 3.5H21ZM21 5.83333H7C6.69058 5.83333 6.39383 5.95625 6.17504 6.17504C5.95625 6.39383 5.83333 6.69058 5.83333 7V21C5.83333 21.3094 5.95625 21.6062 6.17504 21.825C6.39383 22.0438 6.69058 22.1667 7 22.1667H21C21.3094 22.1667 21.6062 22.0438 21.825 21.825C22.0438 21.6062 22.1667 21.3094 22.1667 21V7C22.1667 6.69058 22.0438 6.39383 21.825 6.17504C21.6062 5.95625 21.3094 5.83333 21 5.83333ZM9.33333 11.6667C9.61909 11.6667 9.89489 11.7716 10.1084 11.9615C10.322 12.1514 10.4584 12.413 10.4918 12.6968L10.5 12.8333V18.6667C10.4997 18.964 10.3858 19.25 10.1817 19.4663C9.97755 19.6825 9.69855 19.8126 9.40171 19.83C9.10486 19.8475 8.81256 19.7509 8.58453 19.56C8.3565 19.3692 8.20995 19.0984 8.17483 18.8032L8.16667 18.6667V12.8333C8.16667 12.5239 8.28958 12.2272 8.50838 12.0084C8.72717 11.7896 9.02391 11.6667 9.33333 11.6667ZM12.8333 10.5C13.1066 10.5 13.3711 10.5958 13.5809 10.7709C13.7907 10.9459 13.9324 11.189 13.9813 11.4578C14.2161 11.3217 14.4588 11.1998 14.7082 11.0927C15.4863 10.7602 16.6518 10.577 17.7042 10.9072C18.256 11.0822 18.8102 11.4088 19.2208 11.9653C19.5883 12.4612 19.7867 13.0643 19.8263 13.7422L19.8333 14V18.6667C19.833 18.964 19.7191 19.25 19.515 19.4663C19.3109 19.6825 19.0319 19.8126 18.735 19.83C18.4382 19.8475 18.1459 19.7509 17.9179 19.56C17.6898 19.3692 17.5433 19.0984 17.5082 18.8032L17.5 18.6667V14C17.5 13.615 17.4067 13.4353 17.346 13.3525C17.2589 13.2442 17.1389 13.1672 17.0042 13.1332C16.5982 13.0048 16.0137 13.0725 15.6252 13.2382C15.0418 13.4878 14.5075 13.8798 14.1435 14.2427L14 14.3967V18.6667C13.9997 18.964 13.8858 19.25 13.6817 19.4663C13.4775 19.6825 13.1986 19.8126 12.9017 19.83C12.6049 19.8475 12.3126 19.7509 12.0845 19.56C11.8565 19.3692 11.71 19.0984 11.6748 18.8032L11.6667 18.6667V11.6667C11.6667 11.3572 11.7896 11.0605 12.0084 10.8417C12.2272 10.6229 12.5239 10.5 12.8333 10.5ZM9.33333 8.16667C9.64275 8.16667 9.9395 8.28958 10.1583 8.50838C10.3771 8.72717 10.5 9.02391 10.5 9.33333C10.5 9.64275 10.3771 9.9395 10.1583 10.1583C9.9395 10.3771 9.64275 10.5 9.33333 10.5C9.02391 10.5 8.72717 10.3771 8.50838 10.1583C8.28958 9.9395 8.16667 9.64275 8.16667 9.33333C8.16667 9.02391 8.28958 8.72717 8.50838 8.50838C8.72717 8.28958 9.02391 8.16667 9.33333 8.16667Z" fill="#00291F"/>
</g>
</g>
<defs>
<clipPath id="clip0_1_49">
<rect width="28" height="28" fill="white"/>
</clipPath>
</defs>
</svg>
